# xmcd
#
# Track frame offsets:
#	150
#	12898
#	29033
#	40152
#	53321
#	65046
#	77855
#	88124
#	100696
#
# Disc length: 1507 seconds
#
# Revision: 1
# Processed by: cddbd v1.5.2PL0 Copyright (c) Steve Scherf et al.
# Submitted via: audiograbber 1.83.01
#
DISCID=6a05e109
DTITLE=CARROLL ROBERSON - WITH THE JORDANAIRES
DYEAR=1900
DGENRE=Gospel
TTITLE0=O MYSTERY
TTITLE1=JESUS IS THE ANSWER
TTITLE2=MOVE THAT MOUNTAIN
TTITLE3=THERE'S GOTTA BE
TTITLE4=I WANT THE WORLD TO KNOW
TTITLE5=JESUS IS THERE
TTITLE6=I GOTTA RUN
TTITLE7=ANYWHERE JESUS IS
TTITLE8=WHEN JESUS HEARD MY PRAYER
EXTD=
EXTT0=
EXTT1=
EXTT2=
EXTT3=
EXTT4=
EXTT5=
EXTT6=
EXTT7=
EXTT8=
PLAYORDER=
